<mxfile host="Electron" modified="2025-01-05T15:34:07.489Z" agent="Mozilla/5.0 (Windows NT 10.0; Win64; x64) AppleWebKit/537.36 (KHTML, like Gecko) draw.io/22.0.2 Chrome/114.0.5735.289 Electron/25.8.4 Safari/537.36" etag="UdtDSxFO8SeS6XkgcbZv" version="22.0.2" type="device">
  <diagram name="第 1 页" id="cpNVjvAHhjdyEXP-8txH">
    <mxGraphModel dx="1338" dy="820" grid="1" gridSize="10" guides="1" tooltips="1" connect="1" arrows="1" fold="1" page="1" pageScale="1" pageWidth="827" pageHeight="1169" math="0" shadow="0">
      <root>
        <mxCell id="0" />
        <mxCell id="1" parent="0" />
        <mxCell id="ZJwoTWYaLprZPKcAIoGW-1" value="&lt;div data-docx-has-block-data=&quot;false&quot; data-lark-html-role=&quot;root&quot; data-page-id=&quot;EZx7dX8LhoRCzwxejRgc2UNfnqe&quot;&gt;&lt;div class=&quot;old-record-id-XWPedLDx6onl6dx4gg0cNXftnxe&quot; style=&quot;&quot;&gt;AudioController&lt;/div&gt;&lt;/div&gt;" style="swimlane;fontStyle=1;align=center;verticalAlign=top;childLayout=stackLayout;horizontal=1;startSize=30;horizontalStack=0;resizeParent=1;resizeParentMax=0;resizeLast=0;collapsible=1;marginBottom=0;whiteSpace=wrap;html=1;" vertex="1" parent="1">
          <mxGeometry x="530" y="40" width="360" height="532" as="geometry" />
        </mxCell>
        <mxCell id="ZJwoTWYaLprZPKcAIoGW-2" value="- instance:&amp;nbsp;AudioController&lt;span class=&quot;lark-record-clipboard&quot; data-lark-record-format=&quot;docx/text&quot; data-lark-record-data=&quot;{&amp;quot;rootId&amp;quot;:&amp;quot;EZx7dX8LhoRCzwxejRgc2UNfnqe&amp;quot;,&amp;quot;text&amp;quot;:{&amp;quot;initialAttributedTexts&amp;quot;:{&amp;quot;text&amp;quot;:{&amp;quot;0&amp;quot;:&amp;quot;AudioController&amp;quot;},&amp;quot;attribs&amp;quot;:{&amp;quot;0&amp;quot;:&amp;quot;*0+f&amp;quot;}},&amp;quot;apool&amp;quot;:{&amp;quot;numToAttrib&amp;quot;:{&amp;quot;0&amp;quot;:[&amp;quot;author&amp;quot;,&amp;quot;7388091254493544451&amp;quot;]},&amp;quot;nextNum&amp;quot;:1}},&amp;quot;type&amp;quot;:&amp;quot;text&amp;quot;,&amp;quot;referenceRecordMap&amp;quot;:{},&amp;quot;extra&amp;quot;:{&amp;quot;channel&amp;quot;:&amp;quot;saas&amp;quot;,&amp;quot;pasteRandomId&amp;quot;:&amp;quot;11b79506-b610-4311-a294-8a61337a466a&amp;quot;,&amp;quot;mention_page_title&amp;quot;:{},&amp;quot;external_mention_url&amp;quot;:{}},&amp;quot;isKeepQuoteContainer&amp;quot;:false,&amp;quot;isFromCode&amp;quot;:true,&amp;quot;selection&amp;quot;:[{&amp;quot;id&amp;quot;:8452,&amp;quot;type&amp;quot;:&amp;quot;text&amp;quot;,&amp;quot;selection&amp;quot;:{&amp;quot;start&amp;quot;:8,&amp;quot;end&amp;quot;:23},&amp;quot;recordId&amp;quot;:&amp;quot;XWPedLDx6onl6dx4gg0cNXftnxe&amp;quot;}],&amp;quot;payloadMap&amp;quot;:{},&amp;quot;isCut&amp;quot;:false}&quot;&gt;&lt;/span&gt;" style="text;strokeColor=none;fillColor=none;align=left;verticalAlign=top;spacingLeft=4;spacingRight=4;overflow=hidden;rotatable=0;points=[[0,0.5],[1,0.5]];portConstraint=eastwest;whiteSpace=wrap;html=1;" vertex="1" parent="ZJwoTWYaLprZPKcAIoGW-1">
          <mxGeometry y="30" width="360" height="26" as="geometry" />
        </mxCell>
        <mxCell id="ZJwoTWYaLprZPKcAIoGW-3" value="-&amp;nbsp;_backgroundMusicID:&amp;nbsp;int&lt;span class=&quot;lark-record-clipboard&quot; data-lark-record-format=&quot;docx/text&quot; data-lark-record-data=&quot;{&amp;quot;rootId&amp;quot;:&amp;quot;EZx7dX8LhoRCzwxejRgc2UNfnqe&amp;quot;,&amp;quot;text&amp;quot;:{&amp;quot;initialAttributedTexts&amp;quot;:{&amp;quot;text&amp;quot;:{&amp;quot;0&amp;quot;:&amp;quot;AudioController&amp;quot;},&amp;quot;attribs&amp;quot;:{&amp;quot;0&amp;quot;:&amp;quot;*0+f&amp;quot;}},&amp;quot;apool&amp;quot;:{&amp;quot;numToAttrib&amp;quot;:{&amp;quot;0&amp;quot;:[&amp;quot;author&amp;quot;,&amp;quot;7388091254493544451&amp;quot;]},&amp;quot;nextNum&amp;quot;:1}},&amp;quot;type&amp;quot;:&amp;quot;text&amp;quot;,&amp;quot;referenceRecordMap&amp;quot;:{},&amp;quot;extra&amp;quot;:{&amp;quot;channel&amp;quot;:&amp;quot;saas&amp;quot;,&amp;quot;pasteRandomId&amp;quot;:&amp;quot;11b79506-b610-4311-a294-8a61337a466a&amp;quot;,&amp;quot;mention_page_title&amp;quot;:{},&amp;quot;external_mention_url&amp;quot;:{}},&amp;quot;isKeepQuoteContainer&amp;quot;:false,&amp;quot;isFromCode&amp;quot;:true,&amp;quot;selection&amp;quot;:[{&amp;quot;id&amp;quot;:8452,&amp;quot;type&amp;quot;:&amp;quot;text&amp;quot;,&amp;quot;selection&amp;quot;:{&amp;quot;start&amp;quot;:8,&amp;quot;end&amp;quot;:23},&amp;quot;recordId&amp;quot;:&amp;quot;XWPedLDx6onl6dx4gg0cNXftnxe&amp;quot;}],&amp;quot;payloadMap&amp;quot;:{},&amp;quot;isCut&amp;quot;:false}&quot;&gt;&lt;/span&gt;" style="text;strokeColor=none;fillColor=none;align=left;verticalAlign=top;spacingLeft=4;spacingRight=4;overflow=hidden;rotatable=0;points=[[0,0.5],[1,0.5]];portConstraint=eastwest;whiteSpace=wrap;html=1;" vertex="1" parent="ZJwoTWYaLprZPKcAIoGW-1">
          <mxGeometry y="56" width="360" height="26" as="geometry" />
        </mxCell>
        <mxCell id="ZJwoTWYaLprZPKcAIoGW-4" value="-&amp;nbsp;_soundEffectID:&amp;nbsp;int&lt;span class=&quot;lark-record-clipboard&quot; data-lark-record-format=&quot;docx/text&quot; data-lark-record-data=&quot;{&amp;quot;rootId&amp;quot;:&amp;quot;EZx7dX8LhoRCzwxejRgc2UNfnqe&amp;quot;,&amp;quot;text&amp;quot;:{&amp;quot;initialAttributedTexts&amp;quot;:{&amp;quot;text&amp;quot;:{&amp;quot;0&amp;quot;:&amp;quot;AudioController&amp;quot;},&amp;quot;attribs&amp;quot;:{&amp;quot;0&amp;quot;:&amp;quot;*0+f&amp;quot;}},&amp;quot;apool&amp;quot;:{&amp;quot;numToAttrib&amp;quot;:{&amp;quot;0&amp;quot;:[&amp;quot;author&amp;quot;,&amp;quot;7388091254493544451&amp;quot;]},&amp;quot;nextNum&amp;quot;:1}},&amp;quot;type&amp;quot;:&amp;quot;text&amp;quot;,&amp;quot;referenceRecordMap&amp;quot;:{},&amp;quot;extra&amp;quot;:{&amp;quot;channel&amp;quot;:&amp;quot;saas&amp;quot;,&amp;quot;pasteRandomId&amp;quot;:&amp;quot;11b79506-b610-4311-a294-8a61337a466a&amp;quot;,&amp;quot;mention_page_title&amp;quot;:{},&amp;quot;external_mention_url&amp;quot;:{}},&amp;quot;isKeepQuoteContainer&amp;quot;:false,&amp;quot;isFromCode&amp;quot;:true,&amp;quot;selection&amp;quot;:[{&amp;quot;id&amp;quot;:8452,&amp;quot;type&amp;quot;:&amp;quot;text&amp;quot;,&amp;quot;selection&amp;quot;:{&amp;quot;start&amp;quot;:8,&amp;quot;end&amp;quot;:23},&amp;quot;recordId&amp;quot;:&amp;quot;XWPedLDx6onl6dx4gg0cNXftnxe&amp;quot;}],&amp;quot;payloadMap&amp;quot;:{},&amp;quot;isCut&amp;quot;:false}&quot;&gt;&lt;/span&gt;" style="text;strokeColor=none;fillColor=none;align=left;verticalAlign=top;spacingLeft=4;spacingRight=4;overflow=hidden;rotatable=0;points=[[0,0.5],[1,0.5]];portConstraint=eastwest;whiteSpace=wrap;html=1;" vertex="1" parent="ZJwoTWYaLprZPKcAIoGW-1">
          <mxGeometry y="82" width="360" height="26" as="geometry" />
        </mxCell>
        <mxCell id="ZJwoTWYaLprZPKcAIoGW-5" value="-&amp;nbsp;_backgroundMusicVolume: float&lt;span class=&quot;lark-record-clipboard&quot; data-lark-record-format=&quot;docx/text&quot; data-lark-record-data=&quot;{&amp;quot;rootId&amp;quot;:&amp;quot;EZx7dX8LhoRCzwxejRgc2UNfnqe&amp;quot;,&amp;quot;text&amp;quot;:{&amp;quot;initialAttributedTexts&amp;quot;:{&amp;quot;text&amp;quot;:{&amp;quot;0&amp;quot;:&amp;quot;AudioController&amp;quot;},&amp;quot;attribs&amp;quot;:{&amp;quot;0&amp;quot;:&amp;quot;*0+f&amp;quot;}},&amp;quot;apool&amp;quot;:{&amp;quot;numToAttrib&amp;quot;:{&amp;quot;0&amp;quot;:[&amp;quot;author&amp;quot;,&amp;quot;7388091254493544451&amp;quot;]},&amp;quot;nextNum&amp;quot;:1}},&amp;quot;type&amp;quot;:&amp;quot;text&amp;quot;,&amp;quot;referenceRecordMap&amp;quot;:{},&amp;quot;extra&amp;quot;:{&amp;quot;channel&amp;quot;:&amp;quot;saas&amp;quot;,&amp;quot;pasteRandomId&amp;quot;:&amp;quot;11b79506-b610-4311-a294-8a61337a466a&amp;quot;,&amp;quot;mention_page_title&amp;quot;:{},&amp;quot;external_mention_url&amp;quot;:{}},&amp;quot;isKeepQuoteContainer&amp;quot;:false,&amp;quot;isFromCode&amp;quot;:true,&amp;quot;selection&amp;quot;:[{&amp;quot;id&amp;quot;:8452,&amp;quot;type&amp;quot;:&amp;quot;text&amp;quot;,&amp;quot;selection&amp;quot;:{&amp;quot;start&amp;quot;:8,&amp;quot;end&amp;quot;:23},&amp;quot;recordId&amp;quot;:&amp;quot;XWPedLDx6onl6dx4gg0cNXftnxe&amp;quot;}],&amp;quot;payloadMap&amp;quot;:{},&amp;quot;isCut&amp;quot;:false}&quot;&gt;&lt;/span&gt;" style="text;strokeColor=none;fillColor=none;align=left;verticalAlign=top;spacingLeft=4;spacingRight=4;overflow=hidden;rotatable=0;points=[[0,0.5],[1,0.5]];portConstraint=eastwest;whiteSpace=wrap;html=1;" vertex="1" parent="ZJwoTWYaLprZPKcAIoGW-1">
          <mxGeometry y="108" width="360" height="26" as="geometry" />
        </mxCell>
        <mxCell id="ZJwoTWYaLprZPKcAIoGW-6" value="-&amp;nbsp;_soundEffectVolume: float&lt;span class=&quot;lark-record-clipboard&quot; data-lark-record-format=&quot;docx/text&quot; data-lark-record-data=&quot;{&amp;quot;rootId&amp;quot;:&amp;quot;EZx7dX8LhoRCzwxejRgc2UNfnqe&amp;quot;,&amp;quot;text&amp;quot;:{&amp;quot;initialAttributedTexts&amp;quot;:{&amp;quot;text&amp;quot;:{&amp;quot;0&amp;quot;:&amp;quot;AudioController&amp;quot;},&amp;quot;attribs&amp;quot;:{&amp;quot;0&amp;quot;:&amp;quot;*0+f&amp;quot;}},&amp;quot;apool&amp;quot;:{&amp;quot;numToAttrib&amp;quot;:{&amp;quot;0&amp;quot;:[&amp;quot;author&amp;quot;,&amp;quot;7388091254493544451&amp;quot;]},&amp;quot;nextNum&amp;quot;:1}},&amp;quot;type&amp;quot;:&amp;quot;text&amp;quot;,&amp;quot;referenceRecordMap&amp;quot;:{},&amp;quot;extra&amp;quot;:{&amp;quot;channel&amp;quot;:&amp;quot;saas&amp;quot;,&amp;quot;pasteRandomId&amp;quot;:&amp;quot;11b79506-b610-4311-a294-8a61337a466a&amp;quot;,&amp;quot;mention_page_title&amp;quot;:{},&amp;quot;external_mention_url&amp;quot;:{}},&amp;quot;isKeepQuoteContainer&amp;quot;:false,&amp;quot;isFromCode&amp;quot;:true,&amp;quot;selection&amp;quot;:[{&amp;quot;id&amp;quot;:8452,&amp;quot;type&amp;quot;:&amp;quot;text&amp;quot;,&amp;quot;selection&amp;quot;:{&amp;quot;start&amp;quot;:8,&amp;quot;end&amp;quot;:23},&amp;quot;recordId&amp;quot;:&amp;quot;XWPedLDx6onl6dx4gg0cNXftnxe&amp;quot;}],&amp;quot;payloadMap&amp;quot;:{},&amp;quot;isCut&amp;quot;:false}&quot;&gt;&lt;/span&gt;" style="text;strokeColor=none;fillColor=none;align=left;verticalAlign=top;spacingLeft=4;spacingRight=4;overflow=hidden;rotatable=0;points=[[0,0.5],[1,0.5]];portConstraint=eastwest;whiteSpace=wrap;html=1;" vertex="1" parent="ZJwoTWYaLprZPKcAIoGW-1">
          <mxGeometry y="134" width="360" height="26" as="geometry" />
        </mxCell>
        <mxCell id="ZJwoTWYaLprZPKcAIoGW-7" value="" style="line;strokeWidth=1;fillColor=none;align=left;verticalAlign=middle;spacingTop=-1;spacingLeft=3;spacingRight=3;rotatable=0;labelPosition=right;points=[];portConstraint=eastwest;strokeColor=inherit;" vertex="1" parent="ZJwoTWYaLprZPKcAIoGW-1">
          <mxGeometry y="160" width="360" height="8" as="geometry" />
        </mxCell>
        <mxCell id="ZJwoTWYaLprZPKcAIoGW-8" value="- AudioController()" style="text;strokeColor=none;fillColor=none;align=left;verticalAlign=top;spacingLeft=4;spacingRight=4;overflow=hidden;rotatable=0;points=[[0,0.5],[1,0.5]];portConstraint=eastwest;whiteSpace=wrap;html=1;" vertex="1" parent="ZJwoTWYaLprZPKcAIoGW-1">
          <mxGeometry y="168" width="360" height="26" as="geometry" />
        </mxCell>
        <mxCell id="ZJwoTWYaLprZPKcAIoGW-9" value="+ getInstance(): AudioController" style="text;strokeColor=none;fillColor=none;align=left;verticalAlign=top;spacingLeft=4;spacingRight=4;overflow=hidden;rotatable=0;points=[[0,0.5],[1,0.5]];portConstraint=eastwest;whiteSpace=wrap;html=1;" vertex="1" parent="ZJwoTWYaLprZPKcAIoGW-1">
          <mxGeometry y="194" width="360" height="26" as="geometry" />
        </mxCell>
        <mxCell id="ZJwoTWYaLprZPKcAIoGW-10" value="+&amp;nbsp;playBackgroundMusic(audioPath:&amp;nbsp;std::string&amp;amp;, isLoop: bool)" style="text;strokeColor=none;fillColor=none;align=left;verticalAlign=top;spacingLeft=4;spacingRight=4;overflow=hidden;rotatable=0;points=[[0,0.5],[1,0.5]];portConstraint=eastwest;whiteSpace=wrap;html=1;" vertex="1" parent="ZJwoTWYaLprZPKcAIoGW-1">
          <mxGeometry y="220" width="360" height="26" as="geometry" />
        </mxCell>
        <mxCell id="ZJwoTWYaLprZPKcAIoGW-11" value="+&amp;nbsp;playSoundEffect(audioPath: std::string&amp;amp;)" style="text;strokeColor=none;fillColor=none;align=left;verticalAlign=top;spacingLeft=4;spacingRight=4;overflow=hidden;rotatable=0;points=[[0,0.5],[1,0.5]];portConstraint=eastwest;whiteSpace=wrap;html=1;" vertex="1" parent="ZJwoTWYaLprZPKcAIoGW-1">
          <mxGeometry y="246" width="360" height="26" as="geometry" />
        </mxCell>
        <mxCell id="ZJwoTWYaLprZPKcAIoGW-12" value="+&amp;nbsp;pauseBackgroundMusic()" style="text;strokeColor=none;fillColor=none;align=left;verticalAlign=top;spacingLeft=4;spacingRight=4;overflow=hidden;rotatable=0;points=[[0,0.5],[1,0.5]];portConstraint=eastwest;whiteSpace=wrap;html=1;" vertex="1" parent="ZJwoTWYaLprZPKcAIoGW-1">
          <mxGeometry y="272" width="360" height="26" as="geometry" />
        </mxCell>
        <mxCell id="ZJwoTWYaLprZPKcAIoGW-13" value="+&amp;nbsp;pauseSoundEffect()" style="text;strokeColor=none;fillColor=none;align=left;verticalAlign=top;spacingLeft=4;spacingRight=4;overflow=hidden;rotatable=0;points=[[0,0.5],[1,0.5]];portConstraint=eastwest;whiteSpace=wrap;html=1;" vertex="1" parent="ZJwoTWYaLprZPKcAIoGW-1">
          <mxGeometry y="298" width="360" height="26" as="geometry" />
        </mxCell>
        <mxCell id="ZJwoTWYaLprZPKcAIoGW-14" value="+&amp;nbsp;resumeBackgroundMusic()" style="text;strokeColor=none;fillColor=none;align=left;verticalAlign=top;spacingLeft=4;spacingRight=4;overflow=hidden;rotatable=0;points=[[0,0.5],[1,0.5]];portConstraint=eastwest;whiteSpace=wrap;html=1;" vertex="1" parent="ZJwoTWYaLprZPKcAIoGW-1">
          <mxGeometry y="324" width="360" height="26" as="geometry" />
        </mxCell>
        <mxCell id="ZJwoTWYaLprZPKcAIoGW-15" value="+&amp;nbsp;resumeSoundEffect()" style="text;strokeColor=none;fillColor=none;align=left;verticalAlign=top;spacingLeft=4;spacingRight=4;overflow=hidden;rotatable=0;points=[[0,0.5],[1,0.5]];portConstraint=eastwest;whiteSpace=wrap;html=1;" vertex="1" parent="ZJwoTWYaLprZPKcAIoGW-1">
          <mxGeometry y="350" width="360" height="26" as="geometry" />
        </mxCell>
        <mxCell id="ZJwoTWYaLprZPKcAIoGW-16" value="+&amp;nbsp;stopBackgroundMusic()" style="text;strokeColor=none;fillColor=none;align=left;verticalAlign=top;spacingLeft=4;spacingRight=4;overflow=hidden;rotatable=0;points=[[0,0.5],[1,0.5]];portConstraint=eastwest;whiteSpace=wrap;html=1;" vertex="1" parent="ZJwoTWYaLprZPKcAIoGW-1">
          <mxGeometry y="376" width="360" height="26" as="geometry" />
        </mxCell>
        <mxCell id="ZJwoTWYaLprZPKcAIoGW-17" value="+&amp;nbsp;stopSoundEffect()" style="text;strokeColor=none;fillColor=none;align=left;verticalAlign=top;spacingLeft=4;spacingRight=4;overflow=hidden;rotatable=0;points=[[0,0.5],[1,0.5]];portConstraint=eastwest;whiteSpace=wrap;html=1;" vertex="1" parent="ZJwoTWYaLprZPKcAIoGW-1">
          <mxGeometry y="402" width="360" height="26" as="geometry" />
        </mxCell>
        <mxCell id="ZJwoTWYaLprZPKcAIoGW-18" value="+&amp;nbsp;setBackgroundMusicVolume(volume: float)" style="text;strokeColor=none;fillColor=none;align=left;verticalAlign=top;spacingLeft=4;spacingRight=4;overflow=hidden;rotatable=0;points=[[0,0.5],[1,0.5]];portConstraint=eastwest;whiteSpace=wrap;html=1;" vertex="1" parent="ZJwoTWYaLprZPKcAIoGW-1">
          <mxGeometry y="428" width="360" height="26" as="geometry" />
        </mxCell>
        <mxCell id="ZJwoTWYaLprZPKcAIoGW-19" value="+&amp;nbsp;setSoundEffectVolume(volume: float)" style="text;strokeColor=none;fillColor=none;align=left;verticalAlign=top;spacingLeft=4;spacingRight=4;overflow=hidden;rotatable=0;points=[[0,0.5],[1,0.5]];portConstraint=eastwest;whiteSpace=wrap;html=1;" vertex="1" parent="ZJwoTWYaLprZPKcAIoGW-1">
          <mxGeometry y="454" width="360" height="26" as="geometry" />
        </mxCell>
        <mxCell id="ZJwoTWYaLprZPKcAIoGW-20" value="+&amp;nbsp;getBackgroundMusicVolume()" style="text;strokeColor=none;fillColor=none;align=left;verticalAlign=top;spacingLeft=4;spacingRight=4;overflow=hidden;rotatable=0;points=[[0,0.5],[1,0.5]];portConstraint=eastwest;whiteSpace=wrap;html=1;" vertex="1" parent="ZJwoTWYaLprZPKcAIoGW-1">
          <mxGeometry y="480" width="360" height="26" as="geometry" />
        </mxCell>
        <mxCell id="ZJwoTWYaLprZPKcAIoGW-21" value="+&amp;nbsp;getSoundEffectVolume()" style="text;strokeColor=none;fillColor=none;align=left;verticalAlign=top;spacingLeft=4;spacingRight=4;overflow=hidden;rotatable=0;points=[[0,0.5],[1,0.5]];portConstraint=eastwest;whiteSpace=wrap;html=1;" vertex="1" parent="ZJwoTWYaLprZPKcAIoGW-1">
          <mxGeometry y="506" width="360" height="26" as="geometry" />
        </mxCell>
        <mxCell id="ZJwoTWYaLprZPKcAIoGW-22" value="&lt;b&gt;Client&lt;/b&gt;" style="html=1;whiteSpace=wrap;" vertex="1" parent="1">
          <mxGeometry x="370" y="120" width="80" height="30" as="geometry" />
        </mxCell>
        <mxCell id="ZJwoTWYaLprZPKcAIoGW-23" value="" style="endArrow=open;endFill=1;endSize=12;html=1;rounded=0;exitX=1;exitY=0.5;exitDx=0;exitDy=0;" edge="1" parent="1" source="ZJwoTWYaLprZPKcAIoGW-22">
          <mxGeometry width="160" relative="1" as="geometry">
            <mxPoint x="450" y="200" as="sourcePoint" />
            <mxPoint x="530" y="135" as="targetPoint" />
          </mxGeometry>
        </mxCell>
        <mxCell id="ZJwoTWYaLprZPKcAIoGW-24" value="" style="endArrow=open;endFill=1;endSize=12;html=1;rounded=0;exitX=1;exitY=0.5;exitDx=0;exitDy=0;" edge="1" parent="1">
          <mxGeometry width="160" relative="1" as="geometry">
            <mxPoint x="890" y="90" as="sourcePoint" />
            <mxPoint x="890" y="60" as="targetPoint" />
            <Array as="points">
              <mxPoint x="950" y="90" />
              <mxPoint x="950" y="60" />
            </Array>
          </mxGeometry>
        </mxCell>
        <mxCell id="ZJwoTWYaLprZPKcAIoGW-25" value="" style="endArrow=none;dashed=1;html=1;rounded=0;entryX=0.111;entryY=1.018;entryDx=0;entryDy=0;entryPerimeter=0;" edge="1" parent="1" target="ZJwoTWYaLprZPKcAIoGW-21">
          <mxGeometry width="50" height="50" relative="1" as="geometry">
            <mxPoint x="570" y="610" as="sourcePoint" />
            <mxPoint x="570" y="576.2080000000001" as="targetPoint" />
          </mxGeometry>
        </mxCell>
        <mxCell id="ZJwoTWYaLprZPKcAIoGW-26" value="&lt;font style=&quot;font-size: 10px;&quot;&gt;&amp;nbsp; if (instance == nullptr) {&lt;br&gt;&amp;nbsp; &amp;nbsp; &amp;nbsp; instance = new&amp;nbsp;AudioController()&lt;br&gt;&amp;nbsp; }&lt;br&gt;&amp;nbsp; return instance&lt;/font&gt;" style="shape=note;whiteSpace=wrap;html=1;backgroundOutline=1;darkOpacity=0.05;align=left;size=20;" vertex="1" parent="1">
          <mxGeometry x="530" y="610" width="200" height="70" as="geometry" />
        </mxCell>
        <mxCell id="ZJwoTWYaLprZPKcAIoGW-27" value="" style="ellipse;shape=cloud;whiteSpace=wrap;html=1;" vertex="1" parent="1">
          <mxGeometry x="40" y="250" width="410" height="310" as="geometry" />
        </mxCell>
        <mxCell id="ZJwoTWYaLprZPKcAIoGW-28" value="&lt;b&gt;AudioProfile&lt;/b&gt;" style="html=1;whiteSpace=wrap;" vertex="1" parent="1">
          <mxGeometry x="120" y="410" width="100" height="40" as="geometry" />
        </mxCell>
        <mxCell id="ZJwoTWYaLprZPKcAIoGW-29" value="&lt;b&gt;AudioEngineImpl&lt;/b&gt;" style="html=1;whiteSpace=wrap;" vertex="1" parent="1">
          <mxGeometry x="270" y="420" width="130" height="40" as="geometry" />
        </mxCell>
        <mxCell id="ZJwoTWYaLprZPKcAIoGW-30" value="&lt;b&gt;AudioEngine&lt;/b&gt;" style="html=1;whiteSpace=wrap;" vertex="1" parent="1">
          <mxGeometry x="280" y="320" width="100" height="40" as="geometry" />
        </mxCell>
        <mxCell id="ZJwoTWYaLprZPKcAIoGW-31" value="&lt;b&gt;AudioState&lt;/b&gt;" style="html=1;whiteSpace=wrap;" vertex="1" parent="1">
          <mxGeometry x="230" y="370" width="100" height="40" as="geometry" />
        </mxCell>
        <mxCell id="ZJwoTWYaLprZPKcAIoGW-32" value="&lt;b&gt;AudioInfo&lt;/b&gt;" style="html=1;whiteSpace=wrap;" vertex="1" parent="1">
          <mxGeometry x="170" y="310" width="100" height="40" as="geometry" />
        </mxCell>
        <mxCell id="ZJwoTWYaLprZPKcAIoGW-33" value="&lt;b&gt;ProfileHelper&lt;/b&gt;" style="html=1;whiteSpace=wrap;" vertex="1" parent="1">
          <mxGeometry x="90" y="360" width="100" height="40" as="geometry" />
        </mxCell>
        <mxCell id="ZJwoTWYaLprZPKcAIoGW-34" value="&lt;b&gt;AudioEngineThreadPool&lt;/b&gt;" style="html=1;whiteSpace=wrap;" vertex="1" parent="1">
          <mxGeometry x="190" y="470" width="160" height="40" as="geometry" />
        </mxCell>
        <mxCell id="ZJwoTWYaLprZPKcAIoGW-35" value="" style="endArrow=open;endSize=12;dashed=1;html=1;rounded=0;entryX=0.5;entryY=0;entryDx=0;entryDy=0;exitX=0;exitY=0.5;exitDx=0;exitDy=0;" edge="1" parent="1" source="ZJwoTWYaLprZPKcAIoGW-9" target="ZJwoTWYaLprZPKcAIoGW-32">
          <mxGeometry width="160" relative="1" as="geometry">
            <mxPoint x="480" y="310" as="sourcePoint" />
            <mxPoint x="480" y="150" as="targetPoint" />
            <Array as="points">
              <mxPoint x="220" y="247" />
            </Array>
          </mxGeometry>
        </mxCell>
        <mxCell id="ZJwoTWYaLprZPKcAIoGW-36" value="" style="endArrow=open;endSize=12;dashed=1;html=1;rounded=0;entryX=0.5;entryY=0;entryDx=0;entryDy=0;exitX=0;exitY=0.5;exitDx=0;exitDy=0;" edge="1" parent="1" source="ZJwoTWYaLprZPKcAIoGW-8" target="ZJwoTWYaLprZPKcAIoGW-33">
          <mxGeometry width="160" relative="1" as="geometry">
            <mxPoint x="540" y="257" as="sourcePoint" />
            <mxPoint x="230" y="332" as="targetPoint" />
            <Array as="points">
              <mxPoint x="140" y="221" />
            </Array>
          </mxGeometry>
        </mxCell>
        <mxCell id="ZJwoTWYaLprZPKcAIoGW-37" value="" style="endArrow=open;endSize=12;dashed=1;html=1;rounded=0;entryX=0.5;entryY=0;entryDx=0;entryDy=0;exitX=0;exitY=0.5;exitDx=0;exitDy=0;" edge="1" parent="1" source="ZJwoTWYaLprZPKcAIoGW-10" target="ZJwoTWYaLprZPKcAIoGW-30">
          <mxGeometry width="160" relative="1" as="geometry">
            <mxPoint x="540" y="257" as="sourcePoint" />
            <mxPoint x="230" y="332" as="targetPoint" />
            <Array as="points">
              <mxPoint x="330" y="273" />
            </Array>
          </mxGeometry>
        </mxCell>
        <mxCell id="ZJwoTWYaLprZPKcAIoGW-38" value="" style="endArrow=open;endSize=12;dashed=1;html=1;rounded=0;entryX=0.5;entryY=1;entryDx=0;entryDy=0;exitX=0;exitY=0.5;exitDx=0;exitDy=0;" edge="1" parent="1" source="ZJwoTWYaLprZPKcAIoGW-21" target="ZJwoTWYaLprZPKcAIoGW-28">
          <mxGeometry width="160" relative="1" as="geometry">
            <mxPoint x="540" y="283" as="sourcePoint" />
            <mxPoint x="340" y="342" as="targetPoint" />
            <Array as="points">
              <mxPoint x="170" y="560" />
            </Array>
          </mxGeometry>
        </mxCell>
        <mxCell id="ZJwoTWYaLprZPKcAIoGW-39" value="" style="endArrow=open;endSize=12;dashed=1;html=1;rounded=0;entryX=1;entryY=0.5;entryDx=0;entryDy=0;exitX=0;exitY=0.846;exitDx=0;exitDy=0;exitPerimeter=0;" edge="1" parent="1" source="ZJwoTWYaLprZPKcAIoGW-18" target="ZJwoTWYaLprZPKcAIoGW-34">
          <mxGeometry width="160" relative="1" as="geometry">
            <mxPoint x="510" y="490" as="sourcePoint" />
            <mxPoint x="180" y="460" as="targetPoint" />
            <Array as="points" />
          </mxGeometry>
        </mxCell>
        <mxCell id="ZJwoTWYaLprZPKcAIoGW-40" value="" style="endArrow=open;endSize=12;dashed=1;html=1;rounded=0;entryX=1;entryY=0.5;entryDx=0;entryDy=0;exitX=0;exitY=0.923;exitDx=0;exitDy=0;exitPerimeter=0;" edge="1" parent="1" source="ZJwoTWYaLprZPKcAIoGW-16" target="ZJwoTWYaLprZPKcAIoGW-29">
          <mxGeometry width="160" relative="1" as="geometry">
            <mxPoint x="510" y="440" as="sourcePoint" />
            <mxPoint x="460" y="440" as="targetPoint" />
            <Array as="points" />
          </mxGeometry>
        </mxCell>
        <mxCell id="ZJwoTWYaLprZPKcAIoGW-41" value="" style="endArrow=open;endSize=12;dashed=1;html=1;rounded=0;entryX=1;entryY=0.5;entryDx=0;entryDy=0;exitX=0;exitY=0;exitDx=0;exitDy=0;exitPerimeter=0;" edge="1" parent="1" source="ZJwoTWYaLprZPKcAIoGW-15">
          <mxGeometry width="160" relative="1" as="geometry">
            <mxPoint x="520" y="390" as="sourcePoint" />
            <mxPoint x="330" y="389.71000000000004" as="targetPoint" />
            <Array as="points" />
          </mxGeometry>
        </mxCell>
      </root>
    </mxGraphModel>
  </diagram>
</mxfile>
